<svg width="24" height="24" viewBox="0 0 24 24" fill="none" xmlns="http://www.w3.org/2000/svg">
<mask id="mask0_3_34" style="mask-type:alpha" maskUnits="userSpaceOnUse" x="0" y="0" width="24" height="24">
<rect width="24" height="24" fill="#D9D9D9"/>
</mask>
<g mask="url(#mask0_3_34)">
<path d="M17.75 14.75V13.25H20C20.2125 13.25 20.3906 13.3219 20.5343 13.4658C20.6781 13.6096 20.75 13.7878 20.75 14.0003C20.75 14.2129 20.6781 14.391 20.5343 14.5345C20.3906 14.6782 20.2125 14.75 20 14.75H17.75ZM17.75 18.75V17.25H20C20.2125 17.25 20.3906 17.3219 20.5343 17.4658C20.6781 17.6096 20.75 17.7878 20.75 18.0003C20.75 18.2129 20.6781 18.391 20.5343 18.5345C20.3906 18.6782 20.2125 18.75 20 18.75H17.75ZM14.25 19.75C13.7 19.75 13.2292 19.5542 12.8375 19.1625C12.4458 18.7708 12.25 18.3 12.25 17.75H10.25V14.25H12.25C12.25 13.7 12.4458 13.2292 12.8375 12.8375C13.2292 12.4458 13.7 12.25 14.25 12.25H16.75V19.75H14.25ZM7 16.75C5.96417 16.75 5.08017 16.384 4.348 15.652C3.616 14.9198 3.25 14.0358 3.25 13C3.25 11.9642 3.616 11.0802 4.348 10.348C5.08017 9.616 5.96417 9.25 7 9.25H8.5C8.98083 9.25 9.39267 9.0785 9.7355 8.7355C10.0785 8.39267 10.25 7.98083 10.25 7.5C10.25 7.01917 10.0785 6.60733 9.7355 6.2645C9.39267 5.9215 8.98083 5.75 8.5 5.75H5C4.7875 5.75 4.60942 5.67808 4.46575 5.53425C4.32192 5.39042 4.25 5.21225 4.25 4.99975C4.25 4.78708 4.32192 4.609 4.46575 4.4655C4.60942 4.32183 4.7875 4.25 5 4.25H8.5C9.4025 4.25 10.1698 4.566 10.802 5.198C11.434 5.83017 11.75 6.5975 11.75 7.5C11.75 8.4025 11.434 9.16983 10.802 9.802C10.1698 10.434 9.4025 10.75 8.5 10.75H7C6.38117 10.75 5.8515 10.9705 5.411 11.4115C4.97033 11.8525 4.75 12.3826 4.75 13.0017C4.75 13.6211 4.97033 14.1507 5.411 14.5905C5.8515 15.0302 6.38117 15.25 7 15.25H9.25V16.75H7Z" fill="#1C1B1F"/>
</g>
</svg>
