<svg width="24" height="24" viewBox="0 0 24 24" fill="none" xmlns="http://www.w3.org/2000/svg">
<mask id="mask0_3_46" style="mask-type:alpha" maskUnits="userSpaceOnUse" x="0" y="0" width="24" height="24">
<rect width="24" height="24" fill="#D9D9D9"/>
</mask>
<g mask="url(#mask0_3_46)">
<path d="M5 20.5C4.36217 20.5 3.90883 20.2154 3.64 19.6462C3.371 19.0769 3.43592 18.5474 3.83475 18.0577L9.5 11.173V5H8.30775C8.09525 5 7.91708 4.92808 7.77325 4.78425C7.62958 4.64042 7.55775 4.46225 7.55775 4.24975C7.55775 4.03708 7.62958 3.859 7.77325 3.7155C7.91708 3.57183 8.09525 3.5 8.30775 3.5H15.6923C15.9048 3.5 16.0829 3.57192 16.2268 3.71575C16.3704 3.85958 16.4423 4.03775 16.4423 4.25025C16.4423 4.46292 16.3704 4.641 16.2268 4.7845C16.0829 4.92817 15.9048 5 15.6923 5H14.5V11.173L20.1653 18.0577C20.5641 18.5474 20.629 19.0769 20.36 19.6462C20.0912 20.2154 19.6378 20.5 19 20.5H5ZM7 18H17L13.6 14H10.4L7 18ZM5 19H19L13 11.7V5H11V11.7L5 19Z" fill="#1C1B1F"/>
</g>
</svg>
