<svg width="24" height="24" viewBox="0 0 24 24" fill="none" xmlns="http://www.w3.org/2000/svg">
<mask id="mask0_3_52" style="mask-type:alpha" maskUnits="userSpaceOnUse" x="0" y="0" width="24" height="24">
<rect width="24" height="24" fill="#D9D9D9"/>
</mask>
<g mask="url(#mask0_3_52)">
<path d="M6.25975 19.0885L8.48475 18.1827C8.29242 17.6161 8.12217 17.0394 7.974 16.4528C7.826 15.8663 7.7135 15.2749 7.6365 14.6788L6.39425 15.5173C6.34942 15.5493 6.31575 15.5861 6.29325 15.6277C6.27092 15.6694 6.25975 15.7159 6.25975 15.7673V19.0885ZM10 18H14C14.3 17.2628 14.5417 16.4151 14.725 15.4568C14.9083 14.4984 15 13.5096 15 12.4902C15 10.9109 14.7474 9.435 14.2423 8.0625C13.7373 6.69 12.9898 5.50767 12 4.5155C11.0102 5.50767 10.2628 6.69 9.75775 8.0625C9.25258 9.435 9 10.9109 9 12.4902C9 13.5096 9.09167 14.4984 9.275 15.4568C9.45833 16.4151 9.7 17.2628 10 18ZM12 12.75C11.5142 12.75 11.101 12.5798 10.7605 12.2395C10.4202 11.899 10.25 11.4858 10.25 11C10.25 10.5142 10.4202 10.101 10.7605 9.7605C11.101 9.42017 11.5142 9.25 12 9.25C12.4858 9.25 12.899 9.42017 13.2395 9.7605C13.5798 10.101 13.75 10.5142 13.75 11C13.75 11.4858 13.5798 11.899 13.2395 12.2395C12.899 12.5798 12.4858 12.75 12 12.75ZM17.7402 19.0885V15.777C17.7402 15.7257 17.7291 15.6776 17.7068 15.6328C17.6843 15.5878 17.6506 15.5493 17.6058 15.5173L16.3635 14.6788C16.2865 15.2749 16.166 15.8999 16.002 16.5538C15.8378 17.2076 15.6756 17.7538 15.5153 18.1923L17.7402 19.0885ZM12 2.58075C13.5153 3.79358 14.6442 5.2465 15.3865 6.9395C16.1288 8.63233 16.5 10.5628 16.5 12.7308C16.5 12.7693 16.5016 12.8093 16.5048 12.851C16.5079 12.8927 16.5063 12.9359 16.5 12.9808L18.4173 14.2653C18.6749 14.4294 18.8765 14.6471 19.022 14.9183C19.1675 15.1894 19.2402 15.4757 19.2402 15.777V21.298L14.7653 19.5H9.225L4.75975 21.298V15.7673C4.75975 15.4659 4.83092 15.1798 4.97325 14.9088C5.11542 14.6376 5.31542 14.4199 5.57325 14.2558L7.5 12.9713V12.7308C7.5 10.5628 7.87117 8.63233 8.6135 6.9395C9.35583 5.2465 10.4847 3.79358 12 2.58075Z" fill="#1C1B1F"/>
</g>
</svg>
