<svg width="24" height="24" viewBox="0 0 24 24" fill="none" xmlns="http://www.w3.org/2000/svg">
<mask id="mask0_5_70" style="mask-type:alpha" maskUnits="userSpaceOnUse" x="0" y="0" width="24" height="24">
<rect width="24" height="24" fill="#D9D9D9"/>
</mask>
<g mask="url(#mask0_5_70)">
<path d="M12.1155 17.0577V15.8655H14.6155V13.3655H15.8077V17.0577H12.1155ZM8.19225 10.6345V6.94225H11.8845V8.1345H9.3845V10.6345H8.19225ZM7.30775 22.5C6.80258 22.5 6.375 22.325 6.025 21.975C5.675 21.625 5.5 21.1974 5.5 20.6923V3.30775C5.5 2.80258 5.675 2.375 6.025 2.025C6.375 1.675 6.80258 1.5 7.30775 1.5H16.6923C17.1974 1.5 17.625 1.675 17.975 2.025C18.325 2.375 18.5 2.80258 18.5 3.30775V20.6923C18.5 21.1974 18.325 21.625 17.975 21.975C17.625 22.325 17.1974 22.5 16.6923 22.5H7.30775ZM7 19.75V20.6923C7 20.7693 7.03208 20.8398 7.09625 20.9038C7.16025 20.9679 7.23075 21 7.30775 21H16.6923C16.7693 21 16.8398 20.9679 16.9038 20.9038C16.9679 20.8398 17 20.7693 17 20.6923V19.75H7ZM7 18.25H17V5.75H7V18.25ZM7 4.25H17V3.30775C17 3.23075 16.9679 3.16025 16.9038 3.09625C16.8398 3.03208 16.7693 3 16.6923 3H7.30775C7.23075 3 7.16025 3.03208 7.09625 3.09625C7.03208 3.16025 7 3.23075 7 3.30775V4.25Z" fill="#1C1B1F"/>
</g>
</svg>
