<svg width="24" height="24" viewBox="0 0 24 24" fill="none" xmlns="http://www.w3.org/2000/svg">
<mask id="mask0_3_58" style="mask-type:alpha" maskUnits="userSpaceOnUse" x="0" y="0" width="24" height="24">
<rect width="24" height="24" fill="#D9D9D9"/>
</mask>
<g mask="url(#mask0_3_58)">
<path d="M10 16.0193C11.6667 16.0193 13.0833 15.435 14.25 14.2665C15.4167 13.0978 16 11.6788 16 10.0095C16 8.34017 15.4167 6.92125 14.25 5.75275C13.0833 4.58425 11.6667 4 10 4C8.33333 4 6.91667 4.58425 5.75 5.75275C4.58333 6.92125 4 8.34017 4 10.0095C4 11.6788 4.58333 13.0978 5.75 14.2665C6.91667 15.435 8.33333 16.0193 10 16.0193ZM9.25 12.798V6.31725H10.75V12.798H9.25ZM5.827 12.798V8.26925H7.327V12.798H5.827ZM12.673 12.798V9.25H14.173V12.798H12.673ZM20.4557 21.5L14.7615 15.8057C14.1102 16.3391 13.3802 16.7547 12.5715 17.0527C11.7628 17.3509 10.9057 17.5 10 17.5C7.90633 17.5 6.13292 16.7736 4.67975 15.3207C3.22658 13.8679 2.5 12.0948 2.5 10.0015C2.5 7.90817 3.22642 6.13458 4.67925 4.68075C6.13208 3.22692 7.90517 2.5 9.9985 2.5C12.0918 2.5 13.8654 3.22658 15.3193 4.67975C16.7731 6.13292 17.5 7.90633 17.5 10C17.5 10.9057 17.3509 11.7628 17.0527 12.5715C16.7547 13.3802 16.3391 14.107 15.8057 14.752L21.5 20.4462L20.4557 21.5Z" fill="#1C1B1F"/>
</g>
</svg>
