<svg width="843" height="247" viewBox="0 0 843 247" fill="none" xmlns="http://www.w3.org/2000/svg">
<path fill-rule="evenodd" clip-rule="evenodd" d="M166.042 76.249C165.62 64.378 159.958 54.7559 150.1 47.7115C138.869 39.6894 126.967 39.9605 115.531 47.6537C107.763 52.8759 102.767 60.2225 99.3181 68.6402C95.016 79.1378 92.9049 90.1999 92.1493 101.498C91.9982 103.746 91.2338 104.458 89.1227 104.418C85.2338 104.342 81.3405 104.311 77.4606 104.462C74.7939 104.564 73.8162 103.564 73.6828 100.862C73.2251 91.3555 71.5007 82.0445 68.3451 73.0624C64.3541 61.6891 58.3763 51.7426 47.332 45.7648C41.861 42.8004 36.0699 41.276 29.7944 42.0449C10.0391 44.4626 -10.4719 70.5779 6.0302 96.6488C13.8746 109.04 25.5544 116.595 38.821 122.053C39.0577 122.15 39.3385 122.217 39.6248 122.286L39.6248 122.286L39.6249 122.286C40.467 122.489 41.3563 122.702 41.3098 123.711C41.2737 124.477 40.4557 124.689 39.6727 124.891L39.6725 124.891C39.3978 124.962 39.1274 125.032 38.8965 125.124C27.9011 129.511 18.0523 135.608 10.2968 144.688C-4.34302 161.83 -3.17858 182.843 13.119 197.426C23.3945 206.621 37.421 207.723 49.1098 200.448C57.6119 195.154 63.0474 187.474 66.7274 178.421C70.9273 168.079 73.0117 157.235 73.7717 146.137C73.9317 143.795 74.5851 142.675 77.0962 142.751C81.2783 142.879 85.4694 142.831 89.656 142.782C91.4027 142.759 92.0427 143.408 92.1404 145.23C92.6249 154.421 94.2871 163.426 96.9982 172.221C99.6159 180.715 103.611 188.452 109.851 194.901C121.9 207.359 139.495 208.665 152.211 198.057C168.673 184.323 170.517 162.293 156.775 145.848C148.815 136.319 138.744 129.986 127.438 125.311C127.175 125.202 126.864 125.125 126.547 125.046C125.627 124.817 124.659 124.575 124.669 123.537C124.675 122.692 125.563 122.463 126.417 122.242C126.735 122.16 127.048 122.079 127.309 121.968C135.616 118.453 143.513 114.275 150.251 108.151C159.535 99.6976 165.735 89.72 166.042 76.249ZM142.67 76.2902C142.403 81.2413 139.625 84.7968 136.314 87.8679C128.901 94.7478 119.883 98.6011 110.217 101.134C108.897 101.481 108.172 101.166 108.484 99.7744C111.132 87.939 114.283 76.2813 123.35 67.4503C126.386 64.4948 130.172 61.7348 134.572 63.9792C139.399 66.437 142.39 70.6769 142.67 76.2902ZM44.8429 69.6983C42.0918 66.3161 38.7052 63.6895 34.1497 63.2806C32.7586 63.3162 31.5364 63.7073 30.403 64.3784C22.9987 68.7517 21.2298 77.3338 26.4875 84.1604C33.9586 93.8625 44.7184 97.9781 55.9761 101.187C57.3939 101.591 57.8294 101.076 57.5317 99.6891C55.1983 88.8848 51.9584 78.4449 44.8429 69.6983ZM23.3672 171.108C23.5139 166.908 25.5405 163.832 28.0427 161.077C34.9271 153.504 43.9226 149.579 53.4869 146.744C57.9669 145.415 58.0735 145.522 56.9624 150.148C54.7891 159.201 51.8736 167.961 46.3092 175.601C44.1759 178.535 41.7048 181.126 38.376 182.708C34.2738 184.659 31.5405 184.21 28.3272 181.037C25.4961 178.237 23.3806 175.046 23.3672 171.108ZM134.737 183.143C139.404 180.285 142.488 176.334 142.617 170.574C142.661 167.032 139.653 162.098 135.297 158.37C128.097 152.205 119.622 148.681 110.626 146.13C108.373 145.49 108.182 146.441 108.573 148.121C110.897 158.054 113.831 167.734 120.004 176.103C122.115 178.965 124.688 181.263 127.871 182.827C130.084 183.916 132.479 184.525 134.737 183.143Z" fill="#0082FB"/>
<path d="M205.145 196V61.0797H219.461V196H205.145ZM214.558 196V182.861H288.882V196H214.558ZM361.5 197.961C351.957 197.961 343.067 196.196 334.83 192.666C326.724 189.006 319.599 184.038 313.455 177.762C307.31 171.356 302.473 163.97 298.943 155.602C295.544 147.104 293.844 138.018 293.844 128.344C293.844 118.538 295.544 109.452 298.943 101.085C302.342 92.718 307.114 85.3967 313.259 79.1214C319.403 72.846 326.528 67.9434 334.634 64.4135C342.74 60.8836 351.564 59.1187 361.108 59.1187C370.652 59.1187 379.477 60.8836 387.582 64.4135C395.819 67.9434 403.009 72.846 409.154 79.1214C415.299 85.3967 420.07 92.7834 423.47 101.281C426.869 109.648 428.568 118.735 428.568 128.54C428.568 138.214 426.869 147.301 423.47 155.798C420.07 164.166 415.299 171.487 409.154 177.762C403.14 184.038 396.08 189.006 387.975 192.666C379.869 196.196 371.044 197.961 361.5 197.961ZM361.108 184.038C371.306 184.038 380.327 181.619 388.171 176.782C396.146 171.944 402.356 165.342 406.801 156.975C411.376 148.608 413.664 139.064 413.664 128.344C413.664 120.369 412.357 113.048 409.742 106.38C407.128 99.5817 403.467 93.6985 398.76 88.7305C394.054 83.6318 388.498 79.7097 382.091 76.9642C375.816 74.2188 368.822 72.846 361.108 72.846C351.041 72.846 342.021 75.2646 334.046 80.1019C326.202 84.8084 319.992 91.3453 315.416 99.7124C310.971 108.08 308.748 117.623 308.748 128.344C308.748 136.319 310.056 143.705 312.67 150.504C315.285 157.302 318.946 163.25 323.652 168.349C328.359 173.317 333.915 177.174 340.321 179.919C346.727 182.665 353.656 184.038 361.108 184.038ZM517.963 197.961C508.419 197.961 499.529 196.196 491.293 192.666C483.187 189.006 476.062 184.038 469.917 177.762C463.773 171.356 458.936 163.97 455.406 155.602C452.006 147.104 450.307 138.018 450.307 128.344C450.307 118.538 452.006 109.452 455.406 101.085C458.805 92.718 463.577 85.3967 469.721 79.1214C475.866 72.846 482.991 67.9434 491.097 64.4135C499.202 60.8836 508.027 59.1187 517.571 59.1187C527.115 59.1187 535.939 60.8836 544.045 64.4135C552.282 67.9434 559.472 72.846 565.617 79.1214C571.761 85.3967 576.533 92.7834 579.932 101.281C583.331 109.648 585.031 118.735 585.031 128.54C585.031 138.214 583.331 147.301 579.932 155.798C576.533 164.166 571.761 171.487 565.617 177.762C559.603 184.038 552.543 189.006 544.437 192.666C536.332 196.196 527.507 197.961 517.963 197.961ZM517.571 184.038C527.768 184.038 536.789 181.619 544.633 176.782C552.608 171.944 558.818 165.342 563.263 156.975C567.839 148.608 570.127 139.064 570.127 128.344C570.127 120.369 568.82 113.048 566.205 106.38C563.59 99.5817 559.93 93.6985 555.223 88.7305C550.517 83.6318 544.96 79.7097 538.554 76.9642C532.279 74.2188 525.284 72.846 517.571 72.846C507.504 72.846 498.483 75.2646 490.508 80.1019C482.664 84.8084 476.454 91.3453 471.878 99.7124C467.433 108.08 465.211 117.623 465.211 128.344C465.211 136.319 466.518 143.705 469.133 150.504C471.748 157.302 475.408 163.25 480.115 168.349C484.821 173.317 490.378 177.174 496.784 179.919C503.19 182.665 510.119 184.038 517.571 184.038ZM622.084 141.875V129.128H661.894C667.384 129.128 672.287 128.017 676.601 125.794C681.046 123.572 684.511 120.434 686.995 116.381C689.61 112.198 690.917 107.23 690.917 101.477C690.917 95.7249 689.61 90.8223 686.995 86.7695C684.511 82.5859 681.046 79.3829 676.601 77.1603C672.287 74.8071 667.384 73.6304 661.894 73.6304H622.084V61.0797H662.874C670.98 61.0797 678.236 62.7793 684.642 66.1784C691.048 69.4469 696.081 74.088 699.742 80.1019C703.533 86.1158 705.429 93.2409 705.429 101.477C705.429 109.583 703.533 116.708 699.742 122.853C696.081 128.867 691.048 133.573 684.642 136.972C678.236 140.241 670.98 141.875 662.874 141.875H622.084ZM612.867 196V61.0797H627.183V196H612.867ZM817.658 196L772.946 132.462H770.396L717.056 61.0797H734.313L778.241 120.5H780.79L834.719 196H817.658ZM714.899 196L768.043 124.814L777.456 133.442L731.175 196H714.899ZM781.967 130.305L772.553 121.48L816.285 61.0797H832.562L781.967 130.305Z" fill="#1A241E"/>
</svg>
